<?xml version="1.0" encoding="UTF-8"?>
<svg width="62px" height="38px" viewBox="0 0 62 38" version="1.1" xmlns="http://www.w3.org/2000/svg" xmlns:xlink="http://www.w3.org/1999/xlink">
    <!-- Generator: Sketch 48.2 (47327) - http://www.bohemiancoding.com/sketch -->
    <title>Fill 4</title>
    <desc>Created with Sketch.</desc>
    <defs></defs>
    <g id="Loading-Copy-2" stroke="none" stroke-width="1" fill="none" fill-rule="evenodd" transform="translate(-86.000000, -361.000000)">
        <path d="M125.537036,366.988823 C125.72562,366.931639 125.921662,366.892797 126.11877,366.876613 C126.447993,366.850718 126.781478,366.890639 127.084064,367.024428 C127.727594,367.31035 128.139922,367.989008 128.259252,368.689245 C128.501108,370.113455 127.796848,371.595929 127.093654,372.781693 C124.887114,376.500825 121.365813,377.840878 117.247862,376.987431 C118.674495,373.165798 121.351962,368.245797 125.537036,366.988823 M147.125113,364.781296 C145.293611,364.268796 144.693764,366.262691 144.316596,367.583323 C143.864847,369.161824 143.361956,370.715508 142.818579,372.25193 L142.509599,373.003956 C131.499275,398.999041 121.849526,395.992014 120.11711,395.241066 C115.20114,392.784303 114.680136,385.510038 116.600071,378.923063 C120.663684,379.793773 130.39121,377.535536 132.303687,369.307482 C133.37233,364.70577 130.830174,360.478453 125.85667,361.052453 C118.183324,361.93719 113.311037,369.019403 111.143919,376.606562 C111.082123,376.82451 109.497804,376.704746 109.270864,376.712299 C108.324748,376.743589 107.377566,376.784589 106.431449,376.833141 C104.540282,376.929168 102.65018,377.071589 100.774994,377.340247 C97.5903743,377.795562 94.449438,378.653326 91.5631434,380.101274 C90.0406203,380.866247 88.0493008,381.776879 87.0168831,383.195695 C85.8118631,384.877775 85.6776169,386.909433 86.6152098,389.05546 C86.749456,389.40396 87.1511294,389.635934 87.5538682,389.635934 C88.2890262,389.635934 88.6906996,388.940012 88.4903956,388.476065 C87.8415387,386.97417 87.7104888,385.23059 88.9453413,384.035117 C90.4945005,382.535379 92.4229587,381.564326 94.3865766,380.751879 C96.4375611,379.904905 98.6100066,379.380537 100.798434,379.063326 C102.439221,378.825957 104.094925,378.7008 105.750629,378.630668 C106.593397,378.595063 107.4351,378.572405 108.277868,378.557299 C108.461125,378.552984 110.638898,378.591826 110.636767,378.600457 C109.931441,381.7758 109.689585,384.953301 109.911198,387.724038 C110.40663,393.92475 115.479221,398.559909 121.168705,398.999041 C125.560476,399.06162 129.705063,396.054593 133.231691,392.046303 C134.660455,390.405223 135.896373,388.587197 137.108851,386.781038 C138.366078,384.906906 139.622239,383.029537 140.683424,381.02809 C142.182507,378.19801 143.43121,375.238457 144.952668,372.421324 C145.222226,371.921772 145.499242,371.427614 145.776258,370.932377 C146.202437,370.168482 146.62755,369.402429 147.012176,368.615876 C147.479907,367.65885 148.915063,365.284086 147.125113,364.781296" id="Fill-4" fill="#D0D0D0"></path>
    </g>
</svg>