<svg xmlns="http://www.w3.org/2000/svg" width="109" height="21" viewBox="0 0 109 21">
    <path fill="#4D4D66" fill-rule="evenodd" d="M29.45 4.472c.093-.024.19-.041.289-.048.164-.011.33.006.48.063.32.122.526.411.585.71.12.608-.23 1.24-.58 1.745-1.098 1.587-2.851 2.159-4.9 1.794.709-1.63 2.042-3.728 4.126-4.264m79.537 3.81c-.051-.303-.3-.695-.57-.816-.513-.23-.89.096-1.258.496-.406.443-.887.896-1.433 1.128-2.087.887-4.087.409-5.852-.783C96.61 6.102 93.423 3.79 90.22 1.5c-.963-.689-1.656-.777-2.63-.092-.46.324-.94.702-1.23 1.163a78.284 78.284 0 0 0-2.707 4.626c-1.259 2.346-2.343 4.785-3.699 7.073-.827 1.393-1.962 2.632-3.08 3.833-.687.738-1.703.928-2.676.5-.963-.423-1.105-1.326-1.166-2.249-.099-1.48.276-2.877.734-4.264 1.08-3.264 2.158-6.528 3.232-9.793.375-1.14.114-1.882-.745-2.172-1.132-.382-2.267.135-2.661 1.232-.44 1.222-.91 2.436-1.279 3.678-1.06 3.577-2.776 6.804-5.263 9.63-.873.993-1.827 1.901-3.166 2.284-.924.264-1.589-.136-1.66-1.047-.042-.554-.074-1.151.087-1.67.503-1.628.993-3.273 1.684-4.827 1.02-2.297 2.261-4.493 4.085-6.305.574-.57 1.206-1.002 2.075-.453.15.095.557.074.614-.023a.838.838 0 0 0 .031-.687c-.098-.213-.337-.385-.55-.522-1.297-.83-2.834-.681-4.278.426-2.167 1.665-3.42 3.952-4.505 6.354-.663 1.467-1.28 2.963-2.074 4.36-.728 1.28-1.556 2.534-2.521 3.649l-.001.016c-.959 1.023-2.042.694-2.602-.662-.085-.206-.132-.43-.182-.648-.431-1.882.058-3.69.549-5.474.603-2.193 1.331-4.353 1.997-6.53.277-.906.012-1.739-.653-2.129-.627-.368-1.4-.265-2.081.432a14.78 14.78 0 0 0-1.649 2.059C50.88 5.294 49.573 7.36 48.2 9.385c-.355.523-.867.945-1.307 1.413l-.26-.113c.043-.369.031-.754.14-1.104.493-1.572 1.039-3.128 1.525-4.701.228-.736.455-1.493.508-2.25.027-.404-.21-1.022-.528-1.193-.32-.173-.992-.057-1.323.181-.692.498-1.36 1.088-1.86 1.766-1.527 2.073-2.964 4.21-4.45 6.312-.219.31-.513.57-.773.854l-.184-.108c.366-.974.74-1.945 1.096-2.922.41-1.13.83-2.257 1.202-3.399.282-.866.102-1.068-.83-1.07-1.51-.005-1.657.048-2.074 1.453a42.55 42.55 0 0 1-.777 2.347H38.3l-.162.378c-5.742 13.069-10.775 11.557-11.678 11.18-2.565-1.235-2.837-4.893-1.835-8.204 2.12.438 7.193-.698 8.19-4.834.558-2.314-.768-4.44-3.362-4.15-4.003.444-6.544 4.004-7.674 7.82-.96.035-1.882.095-2.823.147C13.124 9.596 2.8 10.664.53 13.698c-.628.847-.698 1.867-.209 2.947.07.175.28.292.489.292.384 0 .593-.35.489-.584-.384-.846-.35-1.575.14-2.188.838-1.138 4.562-2.497 8.123-3.11 1.866-.33 3.747-.49 5.627-.694a66.842 66.842 0 0 1 4.637-.338 15.23 15.23 0 0 1 1.689.02c-.369 1.596-.494 3.193-.379 4.586.258 3.118 2.904 5.448 5.872 5.669 2.29.031 4.452-1.48 6.291-3.496 1.448-1.602 2.703-3.516 3.69-5.237.005.01.009.022.018.046.003-.004.091.194.094.19 1.074 1.456 1.829 1.474 2.976.107.324-.387.63-.792.912-1.21 1.535-2.28 3.057-4.57 4.594-6.848.205-.304.474-.568.713-.852l.242.062c-.02.285.01.584-.068.852-.487 1.656-1.019 3.298-1.492 4.958-.19.665-.386 1.364-.369 2.042.027 1.115 1.053 1.645 2.02 1.059.554-.335 1.086-.792 1.457-1.31 1.468-2.048 2.871-4.14 4.294-6.219.42-.613.828-1.233 1.242-1.85l.25.13c-.088.278-.177.556-.262.835-.72 2.37-1.53 4.72-2.133 7.118-.511 2.032-.602 4.113.273 6.119 1.031 2.362 3.033 2.853 4.93 1.076.04-.038 1.297-1.179 2.196-2.591.364-.573.674-1.31 1.012-1.897.126.299.107.545.094.792-.174 3.147 1.303 4.581 4.648 3.665 1.396-.382 2.384-1.345 3.305-2.37.543-.605 1.047-1.244 1.592-1.897.054.12.092.164.09.206-.006.1-.034.2-.048.3-.187 1.391-.306 2.769.041 4.169.552 2.226 2.628 3.016 4.434 2.678 2.013-.377 3.342-1.732 4.558-3.183 2.807-3.352 4.564-7.284 6.406-11.173.607-1.283 1.343-2.543 2.224-3.66.92-1.166 1.856-1.194 3.074-.36 3.085 2.107 6.143 4.25 9.234 6.348 1.749 1.187 3.699 1.661 5.803 1.204.96-.209 1.88-.589 2.825-.872.499-.149.91-.407.82-.948"/>
</svg>
